<svg width="inherit" height="inherit" viewBox="0 0 92 67" fill="none" xmlns="http://www.w3.org/2000/svg">
<path d="M19.5 66.5H61.5C71.8 66.5 80.8 56.7 80.8 45.5C80.8 43.5 80.5 41.6 80 39.7C86.5 38.1 91.3 32.2 91.3 25.4C91.3 17.7 85.4 11.3 77.5 10.6C75.6 4.39999 69.9 0 63.3 0C56.4 0 50.6 4.7 49 11.2C47.4 10.8 45.8001 10.5 44.1001 10.5C35.1001 10.5 27.4 16.8 25.4 25.4C23.5 24.8 21.6001 24.5 19.6001 24.5C9.3001 24.5 0.300049 34.3 0.300049 45.5C0.300049 56.6 9.3 66.5 19.5 66.5ZM19.5 28C21.7 28 23.9 28.5 26 29.4C26.5 29.6 27.1001 29.6 27.6001 29.3C28.1001 29 28.4 28.5 28.5 28C29.4 20 36.1001 14 44.1001 14C51.6001 14 58.1 19.3 59.5 26.6C59.7 27.4 60.4 28 61.3 28C61.4 28 61.5001 28 61.6001 28C70.6001 28 77.4 37.2 77.4 45.5C77.4 53.8 70.7001 63 61.6001 63H19.6001C10.6001 63 3.80005 53.8 3.80005 45.5C3.80005 37.2 10.5 28 19.5 28Z" fill="#F0F0F0"/>
</svg>
