<svg width="109" height="109" viewBox="0 0 109 109" fill="none" xmlns="http://www.w3.org/2000/svg">
<path d="M54.8 81.8C70.2 81.8 82.8 69.2 82.8 53.8C82.8 38.4 70.2 25.8 54.8 25.8C39.4 25.8 26.8 38.4 26.8 53.8C26.8 69.2 39.4 81.8 54.8 81.8ZM54.8 29.3C68.3 29.3 79.3 40.3 79.3 53.8C79.3 67.3 68.3 78.3 54.8 78.3C41.3 78.3 30.3 67.3 30.3 53.8C30.3 40.3 41.3 29.3 54.8 29.3Z" fill="#F0F0F0"/>
<path d="M52.5 17.6C53.5 17.6 54.3 16.8 54.3 15.8V1.8C54.3 0.8 53.5 0 52.5 0C51.5 0 50.7 0.8 50.7 1.8V15.8C50.8 16.8 51.5 17.6 52.5 17.6Z" fill="#F0F0F0"/>
<path d="M54.3 106.9V92.9C54.3 91.9 53.5 91.1 52.5 91.1C51.5 91.1 50.7 91.9 50.7 92.9V106.9C50.7 107.9 51.5 108.7 52.5 108.7C53.5 108.7 54.3 107.8 54.3 106.9Z" fill="#F0F0F0"/>
<path d="M17.5 56.1C17.5 55.1 16.7 54.3 15.7 54.3H1.7C0.8 54.4 0 55.1 0 56.1C0 57.1 0.8 57.9 1.8 57.9H15.8C16.7 57.9 17.5 57.1 17.5 56.1Z" fill="#F0F0F0"/>
<path d="M106.8 54.4H92.8C91.8 54.4 91 55.2 91 56.2C91 57.2 91.8 58 92.8 58H106.8C107.8 58 108.6 57.2 108.6 56.2C108.6 55.2 107.7 54.4 106.8 54.4Z" fill="#F0F0F0"/>
<path d="M19.5 92.1L29.4 82.2C30.1 81.5 30.1 80.4 29.4 79.7C28.7 79 27.6 79 26.9 79.7L17 89.6C16.3 90.3 16.3 91.4 17 92.1C17.3 92.4 17.8 92.6 18.2 92.6C18.7 92.6 19.2 92.5 19.5 92.1Z" fill="#F0F0F0"/>
<path d="M82.6 28.3C83 28.3 83.5 28.1 83.8 27.8L93.7 17.9C94.4 17.2 94.4 16.1 93.7 15.4C93 14.7 91.9 14.7 91.2 15.4L81.3 25.3C80.6 26 80.6 27.1 81.3 27.8C81.7 28.1 82.2 28.3 82.6 28.3Z" fill="#F0F0F0"/>
<path d="M83.9 79.8C83.2 79.1 82.1 79.1 81.4 79.8C80.7 80.5 80.7 81.6 81.4 82.3L91.3 92.2C91.6 92.5 92.1 92.7 92.5 92.7C92.9 92.7 93.4 92.5 93.7 92.2C94.4 91.5 94.4 90.4 93.7 89.7L83.9 79.8Z" fill="#F0F0F0"/>
<path d="M27 27.8C27.3 28.1 27.8 28.3 28.2 28.3C28.6 28.3 29.1 28.1 29.4 27.8C30.1 27.1 30.1 26 29.4 25.3L19.5 15.4C18.8 14.7 17.7 14.7 17 15.4C16.3 16.1 16.3 17.2 17 17.9L27 27.8Z" fill="#F0F0F0"/>
</svg>
