<svg width="70" height="70" viewBox="0 0 70 70" fill="none" xmlns="http://www.w3.org/2000/svg">
<path d="M35 0C15.7 0 0 15.7 0 35C0 54.3 15.7 70 35 70C54.3 70 70 54.3 70 35C70 15.7 54.2 0 35 0ZM35 66.5C17.6 66.5 3.5 52.4 3.5 35C3.5 17.6 17.6 3.5 35 3.5C52.4 3.5 66.5 17.6 66.5 35C66.5 52.3 52.3 66.5 35 66.5Z" fill="#F0F0F0"/>
<path d="M47.2 19.8C45.7 20.6 32.1 27.4 29.4 30C26.8 32.6 19.9 46.2 19.2 47.8C18.9 48.5 19 49.3 19.5 49.8C19.8 50.1 20.3 50.3 20.7 50.3C21 50.3 21.2 50.2 21.5 50.1C23 49.3 36.7 42.5 39.3 39.9C41.9 37.3 48.8 23.7 49.5 22.1C49.8 21.4 49.7 20.6 49.2 20.1C48.7 19.6 47.9 19.4 47.2 19.8Z" fill="#F0F0F0"/>
</svg>
