<svg width="102" height="83" viewBox="0 0 102 83" fill="none" xmlns="http://www.w3.org/2000/svg">
<path d="M62.7 10.6C63.7 10.6 64.5 9.8 64.5 8.8V1.8C64.5 0.8 63.7 0 62.7 0C61.7 0 60.9 0.8 60.9 1.8V8.8C61 9.8 61.7 10.6 62.7 10.6Z" fill="#F0F0F0"/>
<path d="M99.5 36.9H92.5C91.5 36.9 90.7 37.7 90.7 38.7C90.7 39.7 91.5 40.5 92.5 40.5H99.5C100.5 40.5 101.3 39.7 101.3 38.7C101.3 37.7 100.4 36.9 99.5 36.9Z" fill="#F0F0F0"/>
<path d="M61.8 82.4C72.2 82.4 81.1 73.4 81.1 62.6C81.1 58.1 79.5 53.9 76.9 50.5C81.3 46.6 83.8 41.1 83.8 35.3C83.8 24.1 74.7 15 63.5 15C54.8 15 47 20.7 44.2 28.9C35.3 29 27.7 35.2 25.7 43.8C23.8 43.2 21.8 42.9 19.9 42.9C9.49999 42.9 0.599976 51.9 0.599976 62.7C0.599976 73.4 9.39999 82.5 19.9 82.5H61.8V82.4ZM63.4 18.5C72.7 18.5 80.2 26.1 80.2 35.3C80.2 40.2 78.1 44.7 74.5 47.9C71.3 45 67.3 43.1 62.9 42.8C60.9 35.7 55 30.4 47.8 29.1C50.3 22.8 56.5 18.5 63.4 18.5ZM4.09998 62.6C4.09998 53.8 11.3 46.3 19.9 46.3C22.1 46.3 24.3 46.8 26.4 47.7C26.9 47.9 27.5 47.9 28 47.6C28.5 47.3 28.8 46.8 28.9 46.3C29.8 38.3 36.5 32.3 44.5 32.3C52 32.3 58.5 37.6 59.9 44.9C60.1 45.7 60.8 46.3 61.6 46.3C61.7 46.3 61.9 46.3 61.9 46.3C70.4 46.3 77.7 53.7 77.7 62.6C77.7 71.4 70.5 78.9 61.9 78.9H19.9C11.3 78.9 4.09998 71.4 4.09998 62.6Z" fill="#F0F0F0"/>
<path d="M41.3 18.5C41.6 18.8 42.1 19 42.5 19C42.9 19 43.4 18.8 43.7 18.5C44.4 17.8 44.4 16.7 43.7 16L38.7 11.1C38 10.4 36.9 10.4 36.2 11.1C35.5 11.8 35.5 12.9 36.2 13.6L41.3 18.5Z" fill="#F0F0F0"/>
<path d="M84.6 19C85 19 85.5 18.8 85.8 18.5L90.8 13.6C91.5 12.9 91.5 11.8 90.8 11.1C90.1 10.4 89 10.4 88.3 11.1L83.3 16C82.6 16.7 82.6 17.8 83.3 18.5C83.7 18.9 84.2 19 84.6 19Z" fill="#F0F0F0"/>
<path d="M85.4 55.6L90.3 60.6C90.6 60.9 91.1 61.1 91.5 61.1C91.9 61.1 92.4 60.9 92.7 60.6C93.4 59.9 93.4 58.8 92.7 58.1L87.8 53.1C87.1 52.4 86 52.4 85.3 53.1C84.7 53.8 84.7 54.9 85.4 55.6Z" fill="#F0F0F0"/>
</svg>
