<svg width="53" height="18" viewBox="0 0 53 18" fill="none" xmlns="http://www.w3.org/2000/svg">
<path d="M50.8 14H1.79999C0.799988 14 0 14.8 0 15.8C0 16.8 0.799988 17.6 1.79999 17.6H50.8C51.8 17.6 52.6 16.8 52.6 15.8C52.6 14.8 51.7 14 50.8 14Z" fill="#F0F0F0"/>
<path d="M50.8 7H1.79999C0.799988 7 0 7.8 0 8.8C0 9.8 0.799988 10.6 1.79999 10.6H50.8C51.8 10.6 52.6 9.8 52.6 8.8C52.6 7.8 51.7 7 50.8 7Z" fill="#F0F0F0"/>
<path d="M50.8 0H1.79999C0.799988 0 0 0.800003 0 1.8C0 2.8 0.799988 3.59999 1.79999 3.59999H50.8C51.8 3.59999 52.6 2.8 52.6 1.8C52.6 0.800003 51.7 0 50.8 0Z" fill="#F0F0F0"/>
</svg>
