<svg width="81" height="80" viewBox="0 0 81 80" fill="none" xmlns="http://www.w3.org/2000/svg">
<path d="M19.5001 56.8H61.5001C72.5001 56.8 80.8 45.5 80.8 35.4C80.8 25.6 73.1001 14.7 62.6001 14C60.3001 5.8 52.7001 0 44.1001 0C35.1001 0 27.4 6.29999 25.4 14.9C23.5 14.3 21.5001 14 19.6001 14C8.6001 14 0.300049 25.3 0.300049 35.4C0.300049 45.5 8.40012 56.8 19.5001 56.8ZM19.5001 17.4C21.7001 17.4 23.9001 17.9 26.0001 18.8C26.5001 19 27.1001 19 27.6001 18.7C28.1001 18.4 28.4001 17.9 28.5001 17.4C29.4001 9.39999 36.1001 3.39999 44.1001 3.39999C51.6001 3.39999 58.1001 8.7 59.5001 16C59.7001 16.8 60.4 17.4 61.3 17.4C61.4 17.4 61.5001 17.4 61.6001 17.4C70.5001 17.4 77.4 27 77.4 35.3C77.4 43.6 70.5001 53.2 61.6001 53.2H19.6001C10.7001 53.2 3.80005 43.6 3.80005 35.3C3.80005 27 10.6001 17.4 19.5001 17.4Z" fill="#F0F0F0"/>
<path d="M23.0001 63.8V77.8C23.0001 78.8 23.8 79.6 24.8 79.6C25.8 79.6 26.6001 78.8 26.6001 77.8V63.8C26.6001 62.8 25.8 62 24.8 62C23.8 62 23.0001 62.8 23.0001 63.8Z" fill="#F0F0F0"/>
<path d="M44.0001 63.8V77.8C44.0001 78.8 44.8 79.6 45.8 79.6C46.8 79.6 47.6001 78.8 47.6001 77.8V63.8C47.6001 62.8 46.8 62 45.8 62C44.8 62 44.0001 62.8 44.0001 63.8Z" fill="#F0F0F0"/>
<path d="M33.5001 63.8V70.8C33.5001 71.8 34.3 72.6 35.3 72.6C36.3 72.6 37.1001 71.8 37.1001 70.8V63.8C37.1001 62.8 36.3 62 35.3 62C34.3 62 33.5001 62.8 33.5001 63.8Z" fill="#F0F0F0"/>
<path d="M54.5001 63.8V70.8C54.5001 71.8 55.3 72.6 56.3 72.6C57.3 72.6 58.1001 71.8 58.1001 70.8V63.8C58.1001 62.8 57.3 62 56.3 62C55.3 62 54.5001 62.8 54.5001 63.8Z" fill="#F0F0F0"/>
</svg>
