<svg width="63" height="64" viewBox="0 0 63 64" fill="none" xmlns="http://www.w3.org/2000/svg">
<path d="M61.6 29.8H36.1L54.1 11.8C54.8 11.1 54.8 9.99999 54.1 9.29999C53.4 8.59999 52.3 8.59999 51.6 9.29999L33.5 27.3V1.79999C33.5 0.799988 32.7 0 31.7 0C30.7 0 29.9 0.799988 29.9 1.79999V27.3L11.8 9.29999C11.1 8.59999 9.99999 8.59999 9.29999 9.29999C8.59999 9.99999 8.59999 11.1 9.29999 11.8L27.3 29.8H1.79999C0.799988 29.8 0 30.6 0 31.6C0 32.6 0.799988 33.4 1.79999 33.4H27.3L9.20001 51.5C8.50001 52.2 8.50001 53.3 9.20001 54C9.50001 54.3 9.99996 54.5 10.4 54.5C10.8 54.5 11.3 54.3 11.6 54L29.7 36V61.5C29.7 62.5 30.5 63.3 31.5 63.3C32.5 63.3 33.3 62.5 33.3 61.5V36L51.4 54C51.7 54.3 52.2 54.5 52.6 54.5C53 54.5 53.5 54.3 53.8 54C54.5 53.3 54.5 52.2 53.8 51.5L35.7 33.4H61.2C62.2 33.4 63 32.6 63 31.6C63 30.6 62.5 29.8 61.6 29.8Z" fill="#F0F0F0"/>
</svg>
